<svg xmlns="http://www.w3.org/2000/svg" width="14.13" height="13.886" viewBox="0 0 14.13 13.886">
  <g id="그룹_118" data-name="그룹 118" transform="translate(-627.276 -927.501)">
    <g id="그룹_24" data-name="그룹 24" transform="translate(627.276 927.502)">
      <path id="패스_36" data-name="패스 36" d="M56.318,13.633a.363.363,0,0,0,.307.252.31.31,0,0,0,.23-.126l5.161-6.32a.9.9,0,0,0,0-1.006L56.854.125c-.172-.21-.409-.147-.537.126a.925.925,0,0,0,.077.88l4.752,5.816-4.752,5.816A.9.9,0,0,0,56.318,13.633Z" transform="translate(-56.242 0)" fill="#34464b"/>
    </g>
    <g id="그룹_24-2" data-name="그룹 24" transform="translate(635.479 927.501)">
      <path id="패스_36-2" data-name="패스 36" d="M56.318,13.633a.363.363,0,0,0,.307.252.31.31,0,0,0,.23-.126l5.161-6.32a.9.9,0,0,0,0-1.006L56.854.125c-.172-.21-.409-.147-.537.126a.925.925,0,0,0,.077.88l4.752,5.816-4.752,5.816A.9.9,0,0,0,56.318,13.633Z" transform="translate(-56.242 0)" fill="#34464b"/>
    </g>
  </g>
</svg>
