<svg xmlns="http://www.w3.org/2000/svg" width="395.313" height="495.54" viewBox="0 0 395.313 495.54">
  <g id="undraw_my_code_snippets_re_4adu" transform="translate(-69.988)">
    <path id="패스_13" data-name="패스 13" d="M111.33,606.016h7.1l3.381-27.4H111.33Z" transform="translate(-31.227 -134.48)" fill="#a0616a"/>
    <path id="패스_14" data-name="패스 14" d="M398.395,741.849l11.349-.677v4.862l10.791,7.452a3.038,3.038,0,0,1-1.726,5.538H405.3l-2.329-4.81-.909,4.81h-5.095Z" transform="translate(-320.611 -275.181)" fill="#2f2e41"/>
    <path id="패스_15" data-name="패스 15" d="M187.143,606.016h7.1l3.382-27.4H187.143Z" transform="translate(-50.222 -134.48)" fill="#a0616a"/>
    <path id="패스_16" data-name="패스 16" d="M474.209,741.849l11.349-.677v4.862l10.79,7.452a3.038,3.038,0,0,1-1.726,5.538H481.11l-2.329-4.81-.91,4.81h-5.095Z" transform="translate(-339.605 -275.181)" fill="#2f2e41"/>
    <path id="패스_17" data-name="패스 17" d="M118.834,378.535l37.77.947V338.66l-31.025.154Z" transform="translate(-33.107 -74.361)" fill="#a0616a"/>
    <path id="패스_18" data-name="패스 18" d="M442.171,486.042l5.049,16.822L457.7,524.929l22.141,127.452-3.385,17.63-32.822-1.379L429.016,559.356l-.235,15.086-.114,7.3s5.332,47.492-.883,56.709-.127,8.132-.127,8.132l-.3,19.013-38.89.275,8.58-54.738s4.357-3.44,2.026-6.9,2.259-7.692,2.259-7.692l-2.059-42.732s2.279-7.381-.4-8.34-.352-7.307-.352-7.307l-.4-8.271,8.822-33.36Z" transform="translate(-318.483 -211.259)" fill="#2f2e41"/>
    <path id="패스_19" data-name="패스 19" d="M408.707,451.214l-3.861-11.585-2.758-3.861-1.1-11.033c0-29.789,6.644-24.828,6.644-24.828l8.667-10.477,9.861-.308,7.792-.244,6.478,10.757,9.378,3.31,3.672,19.081-6.707,20.361.3-1.513c3.157,5.828,2.354,6.7-.26,11.08l-.13,1.58c-.307,3.736,2.3,4.379-1.369,5.165-31.477,6.745-34.475,20.235-38.222,14.989-.834-1.168,2.706-15.11,1.5-14.989C405.275,459.032,408.707,451.214,408.707,451.214Z" transform="translate(-321.618 -186.915)" fill="#e6e6e6"/>
    <ellipse id="타원_1" data-name="타원 1" cx="16.364" cy="16.364" rx="16.364" ry="16.364" transform="translate(90.015 165.532)" fill="#a0616a"/>
    <path id="패스_20" data-name="패스 20" d="M390.386,498.618l1.676-57.648,10.915,4.775-5.441,52.662a5.439,5.439,0,1,1-7.149.21Z" transform="translate(-318.526 -199.966)" fill="#a0616a"/>
    <path id="패스_21" data-name="패스 21" d="M404.458,403.2l-1.269.4A16.73,16.73,0,0,0,391.5,419.551l-2.388,10.932c3.459,5.934,8.571,8.874,15.69,8.186Z" transform="translate(-318.643 -190.502)" fill="#e6e6e6"/>
    <path id="패스_22" data-name="패스 22" d="M498.043,427.929a5.434,5.434,0,1,0-10.417,2.166l-10.7,16.864V436.845l-12.072,1.306,1.69,18.026a6.8,6.8,0,0,0,12.7,2.709l14.466-25.634a5.435,5.435,0,0,0,4.334-5.322Z" transform="translate(-337.62 -195.337)" fill="#a0616a"/>
    <path id="패스_23" data-name="패스 23" d="M463.437,406.814l1.214.384a16,16,0,0,1,11.185,15.261l2.284,10.458c-3.309,5.677-8.2,8.49-15.009,7.831Z" transform="translate(-337.184 -191.408)" fill="#e6e6e6"/>
    <path id="패스_24" data-name="패스 24" d="M408.948,359.462c.914-3.479,1.258-7.12,2.578-10.465a19,19,0,0,1,34.111-2.539,12.941,12.941,0,0,1,1.872,8.414c-.521,3.194-2.636,6.23-1.974,9.4.443,2.119,2.044,3.765,3.314,5.518s2.274,4.07,1.358,6.032c-.994,2.13-3.757,2.76-6.1,2.56s-4.689-.956-7-.532l1.1-4.315-8.223,7.915c.3-2.746-.972-5.38-1.852-8s-1.29-5.775.453-7.918c1.042-1.282,2.649-1.929,4.083-2.75s2.857-2.05,3-3.7c.181-2.035-1.643-3.668-3.433-4.651s-3.852-1.809-4.857-3.588l2.164,4.645a13.671,13.671,0,0,1-11.341-7.679l-.988.647c-8.218,9.216,2.306,23.023-3.863,27.854C416.062,371.482,407.541,364.819,408.948,359.462Z" transform="translate(-323.574 -173.91)" fill="#2f2e41"/>
    <path id="패스_444" data-name="패스 444" d="M36.332,0H207.99a36.332,36.332,0,0,1,36.332,36.332V408.843a36.332,36.332,0,0,1-36.332,36.332H36.332A36.332,36.332,0,0,1,0,408.843V36.332A36.332,36.332,0,0,1,36.332,0Z" transform="matrix(0.961, -0.278, 0.278, 0.961, 106.885, 67.9)" fill="#3f3d56"/>
    <path id="패스_25" data-name="패스 25" d="M636.152,140.48l-19.634,5.68,1.962,6.782a12.05,12.05,0,0,1-8.227,14.925l-87.718,25.377a12.05,12.05,0,0,1-14.924-8.227l-1.963-6.783-19.633,5.68a39.937,39.937,0,0,0-27.235,49.407L558.033,576.4a39.938,39.938,0,0,0,49.408,27.234L757.578,560.2a39.938,39.938,0,0,0,27.235-49.407L685.559,167.714A39.938,39.938,0,0,0,636.152,140.48Z" transform="translate(-335.705 -124.286)" fill="#fff"/>
    <path id="패스_26" data-name="패스 26" d="M467.91,322.278a3,3,0,0,1-3.713-2.047l-1.666-5.759a3,3,0,1,1,5.759-1.666l1.667,5.759A3,3,0,0,1,467.91,322.278Z" transform="translate(-337.009 -167.312)" fill="#3f3d56"/>
    <path id="패스_27" data-name="패스 27" d="M478.334,358.309a3,3,0,0,1-3.713-2.047l-4.586-15.854a3,3,0,0,1,5.759-1.666L480.38,354.6A3,3,0,0,1,478.334,358.309Z" transform="translate(-338.889 -173.811)" fill="#3f3d56"/>
    <path id="패스_28" data-name="패스 28" d="M487.5,389.988a3,3,0,0,1-3.713-2.047L479.2,372.088a3,3,0,1,1,5.76-1.667l4.587,15.854A3,3,0,0,1,487.5,389.988Z" transform="translate(-341.185 -181.748)" fill="#3f3d56"/>
    <path id="패스_29" data-name="패스 29" d="M795.368,273.911a3,3,0,0,1-3.713-2.047L780.464,233.18a3,3,0,1,1,5.759-1.666L797.414,270.2a3,3,0,0,1-2.046,3.713Z" transform="translate(-416.666 -146.945)" fill="#3f3d56"/>
    <path id="패스_30" data-name="패스 30" d="M540.286,308.982a1.123,1.123,0,0,1-.8-.067l-14.543-7.006a1.124,1.124,0,0,1-.525-1.5l7.006-14.543a1.124,1.124,0,0,1,2.026.976l-6.518,13.53,13.53,6.518a1.124,1.124,0,0,1-.176,2.093Z" transform="translate(-352.516 -160.946)" fill="#5b8def"/>
    <path id="패스_31" data-name="패스 31" d="M554.729,305.461a1.124,1.124,0,0,1-1.245-1.709l8.412-12.441L549.456,282.9a1.124,1.124,0,1,1,1.259-1.862l13.372,9.041a1.124,1.124,0,0,1,.3,1.561l-9.042,13.373A1.114,1.114,0,0,1,554.729,305.461Z" transform="translate(-358.693 -159.847)" fill="#5b8def"/>
    <path id="패스_32" data-name="패스 32" d="M688.161,260.059l-171.548,49.63A10.4,10.4,0,0,1,503.75,302.6l-9.64-33.321a10.4,10.4,0,0,1,7.091-12.864l171.548-49.629a10.4,10.4,0,0,1,12.863,7.091l9.64,33.321A10.4,10.4,0,0,1,688.161,260.059Zm-186.544-2.206a8.9,8.9,0,0,0-6.067,11.007l9.64,33.321a8.9,8.9,0,0,0,11.007,6.067L687.745,258.62a8.9,8.9,0,0,0,6.068-11.007l-9.64-33.321a8.9,8.9,0,0,0-11.007-6.067Z" transform="translate(-344.848 -141.19)" fill="#3f3d56"/>
    <path id="패스_33" data-name="패스 33" d="M623.137,264.7l-28.8,8.331a3,3,0,0,1-1.666-5.76l28.8-8.331a3,3,0,1,1,1.666,5.759Z" transform="translate(-369.103 -154.329)" fill="#e6e6e6"/>
    <path id="패스_34" data-name="패스 34" d="M690.925,261.933l-91.43,26.451a3,3,0,1,1-1.667-5.759l91.431-26.451a3,3,0,1,1,1.666,5.76Z" transform="translate(-370.394 -153.636)" fill="#e6e6e6"/>
    <path id="패스_35" data-name="패스 35" d="M627.047,612.969a1.12,1.12,0,0,1-.8-.068L611.7,605.9a1.124,1.124,0,0,1-.525-1.5l7.005-14.543a1.124,1.124,0,0,1,2.026.976l-6.518,13.529,13.53,6.519a1.124,1.124,0,0,1-.176,2.093Z" transform="translate(-374.254 -237.109)" fill="#5b8def"/>
    <path id="패스_36" data-name="패스 36" d="M641.491,609.447a1.124,1.124,0,0,1-1.245-1.709l8.412-12.441-12.441-8.412a1.124,1.124,0,0,1,1.259-1.863l13.373,9.042a1.124,1.124,0,0,1,.3,1.561L642.109,609A1.119,1.119,0,0,1,641.491,609.447Z" transform="translate(-380.431 -236.01)" fill="#5b8def"/>
    <path id="패스_37" data-name="패스 37" d="M788.126,605.6,616.578,655.23a10.4,10.4,0,0,1-12.863-7.091l-24.844-85.876a10.4,10.4,0,0,1,7.091-12.864L757.509,499.77a10.4,10.4,0,0,1,12.863,7.091l24.844,85.876A10.4,10.4,0,0,1,788.126,605.6ZM586.378,550.839a8.9,8.9,0,0,0-6.067,11.007l24.844,85.875a8.9,8.9,0,0,0,11.007,6.068L787.71,604.16a8.9,8.9,0,0,0,6.068-11.007l-24.844-85.875a8.9,8.9,0,0,0-11.008-6.067Z" transform="translate(-366.084 -214.596)" fill="#3f3d56"/>
    <path id="패스_38" data-name="패스 38" d="M709.9,568.685l-28.8,8.331a3,3,0,0,1-1.666-5.76l28.8-8.331a3,3,0,1,1,1.666,5.76Z" transform="translate(-390.84 -230.492)" fill="#e6e6e6"/>
    <path id="패스_39" data-name="패스 39" d="M777.686,565.919,686.255,592.37a3,3,0,0,1-1.666-5.76l91.432-26.451a3,3,0,1,1,1.666,5.76Z" transform="translate(-392.132 -229.798)" fill="#e6e6e6"/>
    <rect id="사각형_17" data-name="사각형 17" width="13.064" height="6.837" rx="2.88" transform="matrix(0.961, -0.278, 0.278, 0.961, 175.035, 214.47)" fill="#e6e6e6"/>
    <rect id="사각형_18" data-name="사각형 18" width="13.064" height="6.837" rx="2.88" transform="matrix(0.961, -0.278, 0.278, 0.961, 243.45, 194.678)" fill="#5b8def"/>
    <rect id="사각형_19" data-name="사각형 19" width="13.064" height="6.837" rx="2.88" transform="matrix(0.961, -0.278, 0.278, 0.961, 262.833, 189.069)" fill="#e6e6e6"/>
    <rect id="사각형_20" data-name="사각형 20" width="45.54" height="6.837" rx="2.88" transform="matrix(0.961, -0.278, 0.278, 0.961, 193.486, 208.539)" fill="#e6e6e6"/>
    <rect id="사각형_21" data-name="사각형 21" width="45.54" height="6.837" rx="2.88" transform="matrix(0.961, -0.278, 0.278, 0.961, 284.705, 182.149)" fill="#f2f2f2"/>
    <rect id="사각형_22" data-name="사각형 22" width="13.064" height="6.837" rx="2.88" transform="matrix(0.961, -0.278, 0.278, 0.961, 179.569, 229.223)" fill="#e6e6e6"/>
    <rect id="사각형_23" data-name="사각형 23" width="13.064" height="6.837" rx="2.88" transform="matrix(0.961, -0.278, 0.278, 0.961, 247.984, 209.43)" fill="#5b8def"/>
    <rect id="사각형_24" data-name="사각형 24" width="13.064" height="6.837" rx="2.88" transform="matrix(0.961, -0.278, 0.278, 0.961, 267.368, 203.822)" fill="#e6e6e6"/>
    <rect id="사각형_25" data-name="사각형 25" width="45.54" height="6.837" rx="2.88" transform="matrix(0.961, -0.278, 0.278, 0.961, 198.02, 223.291)" fill="#e6e6e6"/>
    <rect id="사각형_26" data-name="사각형 26" width="45.54" height="6.837" rx="2.88" transform="matrix(0.961, -0.278, 0.278, 0.961, 289.238, 196.901)" fill="#f2f2f2"/>
    <rect id="사각형_27" data-name="사각형 27" width="13.064" height="6.837" rx="2.88" transform="matrix(0.961, -0.278, 0.278, 0.961, 220.1, 233.56)" fill="#e6e6e6"/>
    <rect id="사각형_28" data-name="사각형 28" width="13.064" height="6.837" rx="2.88" transform="matrix(0.961, -0.278, 0.278, 0.961, 288.514, 213.768)" fill="#5b8def"/>
    <rect id="사각형_29" data-name="사각형 29" width="13.064" height="6.837" rx="2.88" transform="matrix(0.961, -0.278, 0.278, 0.961, 307.898, 208.16)" fill="#e6e6e6"/>
    <rect id="사각형_30" data-name="사각형 30" width="45.54" height="6.837" rx="2.88" transform="matrix(0.961, -0.278, 0.278, 0.961, 238.55, 227.629)" fill="#e6e6e6"/>
    <rect id="사각형_31" data-name="사각형 31" width="45.54" height="6.837" rx="2.88" transform="matrix(0.961, -0.278, 0.278, 0.961, 329.77, 201.239)" fill="#f2f2f2"/>
    <rect id="사각형_32" data-name="사각형 32" width="13.064" height="6.837" rx="2.88" transform="matrix(0.961, -0.278, 0.278, 0.961, 196.202, 287.556)" fill="#5b8def"/>
    <rect id="사각형_33" data-name="사각형 33" width="13.064" height="6.837" rx="2.88" transform="matrix(0.961, -0.278, 0.278, 0.961, 215.586, 281.948)" fill="#e6e6e6"/>
    <rect id="사각형_34" data-name="사각형 34" width="45.54" height="6.837" rx="2.88" transform="matrix(0.961, -0.278, 0.278, 0.961, 237.774, 276.122)" fill="#f2f2f2"/>
    <rect id="사각형_35" data-name="사각형 35" width="13.064" height="6.837" rx="2.88" transform="matrix(0.961, -0.278, 0.278, 0.961, 241.835, 258.29)" fill="#5b8def"/>
    <rect id="사각형_36" data-name="사각형 36" width="13.064" height="6.837" rx="2.88" transform="matrix(0.961, -0.278, 0.278, 0.961, 261.219, 252.682)" fill="#5b8def"/>
    <rect id="사각형_37" data-name="사각형 37" width="45.54" height="6.837" rx="2.88" transform="matrix(0.961, -0.278, 0.278, 0.961, 192.187, 273.246)" fill="#e6e6e6"/>
    <rect id="사각형_38" data-name="사각형 38" width="45.54" height="6.837" rx="2.88" transform="matrix(0.961, -0.278, 0.278, 0.961, 283.406, 246.856)" fill="#f2f2f2"/>
    <rect id="사각형_39" data-name="사각형 39" width="13.064" height="6.837" rx="2.88" transform="matrix(0.961, -0.278, 0.278, 0.961, 224.092, 247.359)" fill="#e6e6e6"/>
    <rect id="사각형_40" data-name="사각형 40" width="13.064" height="6.837" rx="2.88" transform="matrix(0.961, -0.278, 0.278, 0.961, 292.506, 227.567)" fill="#5b8def"/>
    <rect id="사각형_41" data-name="사각형 41" width="13.064" height="6.837" rx="2.88" transform="matrix(0.961, -0.278, 0.278, 0.961, 311.891, 221.959)" fill="#e6e6e6"/>
    <rect id="사각형_42" data-name="사각형 42" width="45.54" height="6.837" rx="2.88" transform="matrix(0.961, -0.278, 0.278, 0.961, 242.859, 242.523)" fill="#e6e6e6"/>
    <rect id="사각형_43" data-name="사각형 43" width="45.54" height="6.837" rx="2.88" transform="matrix(0.961, -0.278, 0.278, 0.961, 334.079, 216.133)" fill="#f2f2f2"/>
    <ellipse id="타원_2" data-name="타원 2" cx="3.373" cy="3.373" rx="3.373" ry="3.373" transform="translate(210.624 250.042)" fill="#5b8def"/>
    <ellipse id="타원_3" data-name="타원 3" cx="3.373" cy="3.373" rx="3.373" ry="3.373" transform="translate(206.667 236.364)" fill="#5b8def"/>
    <path id="패스_40" data-name="패스 40" d="M599.371,178.707l-22.318,6.457a1.874,1.874,0,1,1-1.042-3.6l22.318-6.457a1.874,1.874,0,1,1,1.041,3.6Z" transform="translate(-365.131 -133.337)" fill="#fff"/>
    <ellipse id="타원_4" data-name="타원 4" cx="1.499" cy="1.499" rx="1.499" ry="1.499" transform="translate(243.739 38.739)" fill="#fff"/>
    <path id="패스_43" data-name="패스 43" d="M711.549,645.45a12.8,12.8,0,1,1,8.738-15.852A12.8,12.8,0,0,1,711.549,645.45Z" transform="translate(-395.33 -244.909)" fill="#e6e6e6"/>
    <path id="패스_44" data-name="패스 44" d="M714.728,632.775l-3.639,1.052-1.052-3.638a1.263,1.263,0,0,0-2.426.7l1.053,3.639-3.639,1.053a1.262,1.262,0,1,0,.7,2.425l3.639-1.052,1.052,3.639a1.262,1.262,0,1,0,2.425-.7l-1.052-3.639,3.639-1.052a1.263,1.263,0,0,0-.7-2.426Z" transform="translate(-397.566 -247.145)" fill="#fff"/>
    <path id="패스_45" data-name="패스 45" d="M759.547,631.564a12.8,12.8,0,1,1,8.739-15.852A12.8,12.8,0,0,1,759.547,631.564Z" transform="translate(-407.356 -241.431)" fill="#e6e6e6"/>
    <path id="패스_46" data-name="패스 46" d="M762.726,620.042l-3.638,1.052-2.425.7-3.639,1.052a1.262,1.262,0,1,0,.7,2.425l3.638-1.052,2.425-.7,3.638-1.053a1.262,1.262,0,1,0-.7-2.425Z" transform="translate(-409.592 -244.819)" fill="#fff"/>
    <path id="패스_47" data-name="패스 47" d="M807.546,617.679a12.8,12.8,0,1,1,8.738-15.852A12.8,12.8,0,0,1,807.546,617.679Z" transform="translate(-419.382 -237.952)" fill="#e6e6e6"/>
    <path id="패스_48" data-name="패스 48" d="M812.973,604.768l-4.957-4.079a1.076,1.076,0,1,0-1.367,1.662l3.206,2.638-2.767.8-2.426.7-3.639,1.053a1.262,1.262,0,0,0,.7,2.425l3.639-1.052,2.425-.7,2.879-.832L809.3,611.52a1.076,1.076,0,0,0,2.043.675l2.014-6.1A1.42,1.42,0,0,0,812.973,604.768Z" transform="translate(-421.617 -239.922)" fill="#fff"/>
  </g>
</svg>
