<svg xmlns="http://www.w3.org/2000/svg" width="332.034" height="300" viewBox="0 0 332.034 300">
  <g id="그룹_128" data-name="그룹 128" transform="translate(-1102.966 -2083.092)">
    <rect id="사각형_72" data-name="사각형 72" width="147.404" height="94.404" transform="translate(1103.029 2155.209)" fill="#f2f2f2"/>
    <rect id="사각형_73" data-name="사각형 73" width="138.974" height="76.978" transform="translate(1107.244 2166.975)" fill="#fff"/>
    <rect id="사각형_74" data-name="사각형 74" width="147.404" height="6.262" transform="translate(1102.966 2155.431)" fill="#5b8def"/>
    <circle id="타원_10" data-name="타원 10" cx="1.161" cy="1.161" r="1.161" transform="translate(1106.459 2157.461)" fill="#fff"/>
    <circle id="타원_11" data-name="타원 11" cx="1.161" cy="1.161" r="1.161" transform="translate(1110.864 2157.461)" fill="#fff"/>
    <circle id="타원_12" data-name="타원 12" cx="1.161" cy="1.161" r="1.161" transform="translate(1115.27 2157.461)" fill="#fff"/>
    <rect id="사각형_75" data-name="사각형 75" width="35.71" height="61.004" transform="translate(1119.871 2174.938)" fill="#f2f2f2"/>
    <rect id="사각형_76" data-name="사각형 76" width="29.758" height="16.792" transform="translate(1161.745 2175.111)" fill="#5b8def"/>
    <rect id="사각형_77" data-name="사각형 77" width="29.758" height="18.067" transform="translate(1161.745 2196.355)" fill="#f2f2f2"/>
    <rect id="사각형_78" data-name="사각형 78" width="29.758" height="16.792" transform="translate(1161.745 2218.873)" fill="#f2f2f2"/>
    <rect id="사각형_79" data-name="사각형 79" width="35.71" height="26.585" transform="translate(1197.881 2175.077)" fill="#f2f2f2"/>
    <rect id="사각형_80" data-name="사각형 80" width="35.71" height="26.585" transform="translate(1197.881 2209.134)" fill="#f2f2f2"/>
    <rect id="사각형_81" data-name="사각형 81" width="147.404" height="94.404" transform="translate(1287.596 2155.209)" fill="#f2f2f2"/>
    <rect id="사각형_82" data-name="사각형 82" width="138.974" height="76.978" transform="translate(1291.811 2166.975)" fill="#fff"/>
    <rect id="사각형_83" data-name="사각형 83" width="147.404" height="6.262" transform="translate(1287.533 2155.431)" fill="#5b8def"/>
    <circle id="타원_13" data-name="타원 13" cx="1.161" cy="1.161" r="1.161" transform="translate(1291.026 2157.461)" fill="#fff"/>
    <circle id="타원_14" data-name="타원 14" cx="1.161" cy="1.161" r="1.161" transform="translate(1295.431 2157.461)" fill="#fff"/>
    <circle id="타원_15" data-name="타원 15" cx="1.161" cy="1.161" r="1.161" transform="translate(1299.837 2157.461)" fill="#fff"/>
    <rect id="사각형_84" data-name="사각형 84" width="35.71" height="61.004" transform="translate(1382.415 2174.938)" fill="#f2f2f2"/>
    <rect id="사각형_85" data-name="사각형 85" width="72.028" height="16.792" transform="translate(1304.47 2175.111)" fill="#5b8def"/>
    <rect id="사각형_86" data-name="사각형 86" width="72.028" height="18.067" transform="translate(1304.47 2196.355)" fill="#f2f2f2"/>
    <rect id="사각형_87" data-name="사각형 87" width="72.028" height="16.792" transform="translate(1304.47 2218.873)" fill="#f2f2f2"/>
    <rect id="사각형_88" data-name="사각형 88" width="0.824" height="45.016" transform="translate(1267.324 2083.092)" fill="#ccc"/>
    <path id="패스_73" data-name="패스 73" d="M364.563,136.695h-.824v-27.6H199.771v27.6h-.824V108.268H364.563Z" transform="translate(985.981 2019.43)" fill="#ccc"/>
    <path id="패스_74" data-name="패스 74" d="M596.322,382.3l-.62-3.1s-9.125-3.1-10.146,3.1Z" transform="translate(677.476 1825.448)" fill="#e6e6e6"/>
    <path id="패스_75" data-name="패스 75" d="M359.553,687.111h-5.982l-2.846-23.075h8.829Z" transform="translate(896.732 1689.71)" fill="#ffb8b8"/>
    <path id="패스_76" data-name="패스 76" d="M545.351,805.423H526.062v-.244a7.508,7.508,0,0,1,7.507-7.508h11.782Z" transform="translate(712.46 1577.198)" fill="#2f2e41"/>
    <path id="패스_77" data-name="패스 77" d="M422.074,687.111h5.982l2.846-23.075h-8.829Z" transform="translate(854.779 1689.71)" fill="#ffb8b8"/>
    <path id="패스_78" data-name="패스 78" d="M615.4,797.67H627.18a7.508,7.508,0,0,1,7.508,7.508v.245H615.4Z" transform="translate(659.928 1577.197)" fill="#2f2e41"/>
    <path id="패스_79" data-name="패스 79" d="M427.776,336.205l6.824-.621,4.343,20.473-.62,18.612L431.5,399.485l-9.306-5.583,4.963-25.436Z" transform="translate(854.708 1884.073)" fill="#2f2e41"/>
    <path id="패스_80" data-name="패스 80" d="M387.378,481.877l-1.528,13.028,1.861,30.4v45.3l-11.788-.632-2.481-47.15-6.825-21.714-4.963,24.816-3.1,46.529-12.1-.97V525.761l-.31-33.337,4.343-13.028Z" transform="translate(899.425 1798.28)" fill="#2f2e41"/>
    <path id="패스_81" data-name="패스 81" d="M559.434,384.481s4.343-6.2,12.408-1.861l3.722,4.963,11.787,8.685-2.481,29.158,3.1,36.6-44.048-.62,7.445-36.6V385.722Z" transform="translate(701.956 1823.461)" fill="#2f2e41"/>
    <path id="패스_82" data-name="패스 82" d="M441.193,360.58l3.557,42.532-4.488-23.051Z" transform="translate(844.083 1869.401)" opacity="0.25"/>
    <path id="패스_83" data-name="패스 83" d="M549.379,568.766a4.575,4.575,0,0,0-1.233-6.907l1.326-10.372-6.106-2.343L541.7,563.817a4.6,4.6,0,0,0,7.68,4.949Z" transform="translate(703.54 1724.258)" fill="#ffb8b8"/>
    <rect id="사각형_89" data-name="사각형 89" width="9.926" height="4.343" transform="translate(1255.187 2282.699) rotate(180)" fill="#e6e6e6"/>
    <path id="패스_84" data-name="패스 84" d="M555.67,397.621l-6.514-5.273s-4.653-.31-5.273,6.514-1.375,35.983-1.375,35.983L540.16,464l13.028.62,2.481-31.559Z" transform="translate(704.17 1816.838)" fill="#2f2e41"/>
    <circle id="타원_16" data-name="타원 16" cx="12.458" cy="12.458" r="12.458" transform="translate(1251.387 2193.916) rotate(-61.337)" fill="#ffb8b8"/>
    <path id="패스_85" data-name="패스 85" d="M576.617,332.65a12.637,12.637,0,0,0,8.267-23.751,14.773,14.773,0,0,0-6.977-1.252c-3.726.2-7.347,1.573-11.077,1.471l-.541.869-2.037-.494-.437,1.617-.537-.019a3.089,3.089,0,0,0,2.614,4.322,12.049,12.049,0,0,0,2.348-.511,2.365,2.365,0,0,1,2.252.467c.7.771.4,1.974.25,3.007s.22,2.425,1.263,2.459c.533.017,1.04-.365,1.563-.265a1.269,1.269,0,0,1,.829,1.468,5.844,5.844,0,0,1-.73,1.7,6.862,6.862,0,0,0,2.722,8.754" transform="translate(690.747 1867.299)" fill="#2f2e41"/>
    <path id="패스_86" data-name="패스 86" d="M562.85,816.458H405.886a.412.412,0,1,1,0-.824H562.85a.412.412,0,1,1,0,.824Z" transform="translate(783.368 1566.634)" fill="#ccc"/>
  </g>
</svg>
