<svg xmlns="http://www.w3.org/2000/svg" width="358.598" height="299.817" viewBox="0 0 358.598 299.817">
  <g id="_3-2" data-name="3-2" transform="translate(0 -0.001)">
    <ellipse id="타원_40" data-name="타원 40" cx="141.621" cy="7.242" rx="141.621" ry="7.242" transform="translate(26.813 285.334)" fill="#f2f2f2"/>
    <path id="패스_337" data-name="패스 337" d="M561.763,146.985h-1.609V102.912A25.509,25.509,0,0,0,534.645,77.4H441.269a25.509,25.509,0,0,0-25.509,25.509V344.7a25.509,25.509,0,0,0,25.509,25.509h93.377A25.509,25.509,0,0,0,560.154,344.7V178.358h1.609Z" transform="translate(-310.587 -77.402)" fill="#3f3d56"/>
    <path id="패스_338" data-name="패스 338" d="M565.181,112.947V354.384a19.051,19.051,0,0,1-19.05,19.05H452.306a19.051,19.051,0,0,1-19.05-19.05V112.947a19.051,19.051,0,0,1,19.05-19.05h11.382a9.055,9.055,0,0,0,8.381,12.468h53.494A9.055,9.055,0,0,0,533.944,93.9h12.187a19.051,19.051,0,0,1,19.05,19.05Z" transform="translate(-321.044 -87.26)" fill="#fff"/>
    <path id="패스_339" data-name="패스 339" d="M634.421,386.173q-.936.489-1.9.925-.881.4-1.79.748l-.672.253a36.032,36.032,0,0,1-5.472,1.509q-1.382.271-2.8.426-1.171.133-2.366.189c-.567.028-1.135.04-1.706.04a36.151,36.151,0,0,1-6.743-.632c-.579-.1-1.147-.229-1.714-.366a35.721,35.721,0,0,1-7.914-2.921c-.225-.113-.451-.233-.676-.35-.334-.177-.66-.362-.985-.555.157-.217.326-.43.5-.64a21.337,21.337,0,0,1,31.732-1.65,21.823,21.823,0,0,1,2.036,2.358C634.112,385.726,634.268,385.948,634.421,386.173Z" transform="translate(-420.51 -256.379)" fill="#5b8def"/>
    <circle id="타원_41" data-name="타원 41" cx="17.666" cy="17.666" r="17.666" transform="translate(180.339 76.787)" fill="#2f2e41"/>
    <circle id="타원_42" data-name="타원 42" cx="13.149" cy="13.149" r="13.149" transform="translate(178.552 95.377) rotate(-28.663)" fill="#a0616a"/>
    <path id="패스_340" data-name="패스 340" d="M638.753,296.446a17.885,17.885,0,0,1-10.22,3.158,10.961,10.961,0,0,0,4.344,1.787,36.061,36.061,0,0,1-14.729.083,9.531,9.531,0,0,1-3.083-1.059,3.9,3.9,0,0,1-1.9-2.545c-.323-1.846,1.115-3.523,2.61-4.654a19.255,19.255,0,0,1,16.181-3.233,8.862,8.862,0,0,1,4.792,2.708,4.365,4.365,0,0,1,.4,5.184Z" transform="translate(-428.539 -204.107)" fill="#2f2e41"/>
    <path id="패스_341" data-name="패스 341" d="M590.7,230.173a36.2,36.2,0,0,0-18.845,67.121l.234.137q.29.175.579.338c.326.193.651.378.986.555.225.117.451.237.676.35a35.715,35.715,0,0,0,7.914,2.921c.567.137,1.135.262,1.714.366a36.144,36.144,0,0,0,6.743.632c.571,0,1.139-.012,1.706-.04q1.195-.054,2.366-.189,1.418-.157,2.8-.427a36.011,36.011,0,0,0,5.472-1.509c.225-.084.451-.169.672-.253q.911-.35,1.79-.748.966-.434,1.9-.925a36.529,36.529,0,0,0,14.9-14.472c.016-.032.036-.064.052-.1a36.211,36.211,0,0,0-31.664-53.76Zm31,53.289c-.032.056-.06.113-.092.165a35.476,35.476,0,0,1-14.677,14.21q-.924.483-1.879.905c-.527.237-1.066.463-1.609.672-.229.089-.463.177-.7.258a34.479,34.479,0,0,1-4.719,1.352,34.045,34.045,0,0,1-3.6.567c-.744.081-1.5.137-2.261.165-.487.02-.978.032-1.469.032a34.911,34.911,0,0,1-6.526-.608,34.453,34.453,0,0,1-3.875-.95,35.57,35.57,0,0,1-5.628-2.281c-.209-.109-.419-.217-.624-.33-.294-.157-.591-.318-.881-.491-.217-.121-.435-.249-.648-.378-.125-.072-.25-.149-.374-.225a35.433,35.433,0,1,1,49.559-13.064Z" transform="translate(-393.502 -168.707)" fill="#3f3d56"/>
    <path id="패스_342" data-name="패스 342" d="M611.995,264.734c-.19-2-2.639-3.229-4.554-2.626a5.727,5.727,0,0,0-3.552,4.5,6.461,6.461,0,0,0,.871,4.877,4.445,4.445,0,0,0,4.406,1.909,5.11,5.11,0,0,0,3.581-4.152,15.017,15.017,0,0,0-.37-5.758Z" transform="translate(-422.935 -187.701)" fill="#2f2e41"/>
    <path id="패스_343" data-name="패스 343" d="M678.976,271.831c-.19-2-2.639-3.229-4.554-2.626a5.727,5.727,0,0,0-3.552,4.5,6.461,6.461,0,0,0,.871,4.877,4.445,4.445,0,0,0,4.406,1.909,5.11,5.11,0,0,0,3.581-4.152,15.021,15.021,0,0,0-.37-5.758Z" transform="translate(-462.968 -191.943)" fill="#2f2e41"/>
    <path id="패스_344" data-name="패스 344" d="M288.967,247.291a1.8,1.8,0,0,1-1.33-.589l-19.964-21.78a2.423,2.423,0,0,0-1.781-.783h-105.5a6.045,6.045,0,0,1-6.039-6.039V180.054a6.045,6.045,0,0,1,6.039-6.039H297.074a6.045,6.045,0,0,1,6.039,6.039V218.1a6.046,6.046,0,0,1-6.039,6.039H293.2a2.419,2.419,0,0,0-2.416,2.416v18.923a1.8,1.8,0,0,1-1.155,1.688A1.822,1.822,0,0,1,288.967,247.291Z" transform="translate(-154.353 -135.145)" fill="#fff"/>
    <path id="패스_345" data-name="패스 345" d="M288.967,247.291a1.8,1.8,0,0,1-1.33-.589l-19.964-21.78a2.423,2.423,0,0,0-1.781-.783h-105.5a6.045,6.045,0,0,1-6.039-6.039V180.054a6.045,6.045,0,0,1,6.039-6.039H297.074a6.045,6.045,0,0,1,6.039,6.039V218.1a6.046,6.046,0,0,1-6.039,6.039H293.2a2.419,2.419,0,0,0-2.416,2.416v18.923a1.8,1.8,0,0,1-1.155,1.688A1.822,1.822,0,0,1,288.967,247.291ZM160.391,174.82a5.24,5.24,0,0,0-5.234,5.234V218.1a5.24,5.24,0,0,0,5.234,5.234h105.5a3.228,3.228,0,0,1,2.374,1.044l19.965,21.78a1.007,1.007,0,0,0,1.749-.68V226.555a3.224,3.224,0,0,1,3.221-3.221h3.875a5.24,5.24,0,0,0,5.234-5.234V180.054a5.24,5.24,0,0,0-5.234-5.234Z" transform="translate(-154.353 -135.145)" fill="#3f3d56"/>
    <circle id="타원_43" data-name="타원 43" cx="5.284" cy="5.284" r="5.284" transform="translate(9.528 45.086)" fill="#5b8def"/>
    <path id="패스_346" data-name="패스 346" d="M304.851,266.9H180.5a2.818,2.818,0,1,1,0-5.636H304.851a2.818,2.818,0,1,1,0,5.636Z" transform="translate(-168.294 -187.287)" fill="#e6e6e6"/>
    <path id="패스_347" data-name="패스 347" d="M264.339,237.127H180.5a2.818,2.818,0,1,1,0-5.636h83.842a2.818,2.818,0,1,1,0,5.636Z" transform="translate(-168.294 -169.494)" fill="#e6e6e6"/>
    <path id="패스_348" data-name="패스 348" d="M689.388,568.166a1.8,1.8,0,0,1-1.155-1.688V547.555a2.419,2.419,0,0,0-2.416-2.416h-3.875A6.046,6.046,0,0,1,675.9,539.1V501.055a6.046,6.046,0,0,1,6.039-6.039H818.626a6.045,6.045,0,0,1,6.039,6.039V539.1a6.046,6.046,0,0,1-6.039,6.039h-105.5a2.421,2.421,0,0,0-1.781.783L691.38,567.7a1.8,1.8,0,0,1-1.33.589A1.828,1.828,0,0,1,689.388,568.166Z" transform="translate(-466.066 -326.994)" fill="#fff"/>
    <path id="패스_349" data-name="패스 349" d="M689.388,568.166a1.8,1.8,0,0,1-1.155-1.688V547.555a2.419,2.419,0,0,0-2.416-2.416h-3.875A6.046,6.046,0,0,1,675.9,539.1V501.055a6.046,6.046,0,0,1,6.039-6.039H818.626a6.045,6.045,0,0,1,6.039,6.039V539.1a6.046,6.046,0,0,1-6.039,6.039h-105.5a2.421,2.421,0,0,0-1.781.783L691.38,567.7a1.8,1.8,0,0,1-1.33.589A1.828,1.828,0,0,1,689.388,568.166Zm-7.446-72.346a5.24,5.24,0,0,0-5.234,5.234V539.1a5.24,5.24,0,0,0,5.234,5.234h3.875a3.224,3.224,0,0,1,3.22,3.221v18.923a1.007,1.007,0,0,0,1.749.68l19.964-21.78a3.228,3.228,0,0,1,2.374-1.044h105.5a5.24,5.24,0,0,0,5.234-5.234V501.055a5.24,5.24,0,0,0-5.234-5.234Z" transform="translate(-466.066 -326.994)" fill="#3f3d56"/>
    <path id="패스_350" data-name="패스 350" d="M547.558,690.035a35.836,35.836,0,0,1-37.679.6,21.768,21.768,0,0,1,3.782-5.089,21.5,21.5,0,0,1,33.76,4.253C547.466,689.875,547.514,689.955,547.558,690.035Z" transform="translate(-366.839 -437.084)" fill="#5b8def"/>
    <circle id="타원_44" data-name="타원 44" cx="17.784" cy="17.784" r="17.784" transform="translate(142.523 198.145)" fill="#2f2e41"/>
    <circle id="타원_45" data-name="타원 45" cx="13.236" cy="13.236" r="13.236" transform="translate(143.962 227.391) rotate(-61.337)" fill="#ffb8b8"/>
    <path id="패스_351" data-name="패스 351" d="M522.25,598.267a18,18,0,0,0,10.288,3.179,11.032,11.032,0,0,1-4.372,1.8,36.3,36.3,0,0,0,14.827.083,9.6,9.6,0,0,0,3.1-1.066,3.928,3.928,0,0,0,1.916-2.562c.325-1.858-1.123-3.547-2.628-4.685A19.382,19.382,0,0,0,529.1,591.76a8.92,8.92,0,0,0-4.824,2.726,4.394,4.394,0,0,0-.406,5.219Z" transform="translate(-374.233 -384.469)" fill="#2f2e41"/>
    <path id="패스_352" data-name="패스 352" d="M501.739,613.618a36.2,36.2,0,1,1,19.542-5.721A36.2,36.2,0,0,1,501.739,613.618Zm0-71.615a35.409,35.409,0,1,0,35.405,35.406A35.409,35.409,0,0,0,501.739,542Z" transform="translate(-340.344 -354.607)" fill="#3f3d56"/>
    <circle id="타원_46" data-name="타원 46" cx="5.284" cy="5.284" r="5.284" transform="translate(221.558 173.834)" fill="#5b8def"/>
    <path id="패스_353" data-name="패스 353" d="M831.849,586.9H707.5a2.818,2.818,0,1,1,0-5.636H831.851a2.818,2.818,0,1,1,0,5.636Z" transform="translate(-483.265 -378.541)" fill="#e6e6e6"/>
    <path id="패스_354" data-name="패스 354" d="M791.339,557.127H707.5a2.818,2.818,0,0,1,0-5.636h83.842a2.818,2.818,0,0,1,0,5.636Z" transform="translate(-483.265 -360.748)" fill="#e6e6e6"/>
    <ellipse id="타원_47" data-name="타원 47" cx="9.859" cy="1.094" rx="9.859" ry="1.094" transform="translate(213.293 242.584)" fill="#f2f2f2"/>
    <ellipse id="타원_48" data-name="타원 48" cx="9.859" cy="1.094" rx="9.859" ry="1.094" transform="translate(125.182 113.838)" fill="#f2f2f2"/>
  </g>
</svg>
