<svg xmlns="http://www.w3.org/2000/svg" width="101.685" height="82.933" viewBox="0 0 101.685 82.933">
  <g id="그룹_55" data-name="그룹 55" transform="translate(-6683.001 1076)">
    <path id="빼기_6" data-name="빼기 6" d="M32.368,64.736a32.618,32.618,0,0,1-6.524-.658,32.187,32.187,0,0,1-11.574-4.87A32.466,32.466,0,0,1,2.543,44.967,32.252,32.252,0,0,1,.657,38.891a32.692,32.692,0,0,1,0-13.046,32.177,32.177,0,0,1,4.87-11.574A32.462,32.462,0,0,1,19.769,2.544,32.188,32.188,0,0,1,25.844.658a32.679,32.679,0,0,1,13.047,0,32.2,32.2,0,0,1,11.574,4.87c.6.408,1.2.844,1.783,1.295l-4.272,11.29a21.03,21.03,0,1,0,4.2,21.179H26.893V29.469h37.36L56.56,27.359,62.469,11.83l3.7-9.651.007,0h0c.168-.032,1.072-.2,2.346-.377a38.729,38.729,0,0,1,4.728-.38h.223a31.978,31.978,0,0,1,4.322.319c1.13.159,1.854.317,1.861.319l22.024,56.963,0,0c-.082.059-.525.375-1.234.808a27.829,27.829,0,0,1-3.2,1.675,56.437,56.437,0,0,1-6.019,2.128L73.1,16.48l-9.969,25.97c-.278.85-.6,1.7-.942,2.518A32.328,32.328,0,0,1,32.368,64.736Z" transform="translate(6683.001 -1076)" fill="#34464b"/>
    <g id="그룹_52" data-name="그룹 52" transform="translate(6735.981 -1015.934)">
      <g id="그룹_51" data-name="그룹 51" transform="translate(0 0)">
        <path id="빼기_7" data-name="빼기 7" d="M3.221,7.73A2.957,2.957,0,0,1,.943,6.6,4.26,4.26,0,0,1,0,3.865,4.26,4.26,0,0,1,.943,1.132,2.957,2.957,0,0,1,3.221,0,2.957,2.957,0,0,1,5.5,1.132a4.26,4.26,0,0,1,.943,2.733A4.26,4.26,0,0,1,5.5,6.6,2.957,2.957,0,0,1,3.221,7.73Zm0-4.67a.849.849,0,0,0-.805.886.849.849,0,0,0,.805.886.849.849,0,0,0,.805-.886A.849.849,0,0,0,3.221,3.06Z" transform="translate(8.374 5.636)" fill="#34464b"/>
        <path id="빼기_8" data-name="빼기 8" d="M3.221,7.73A2.957,2.957,0,0,1,.943,6.6,4.26,4.26,0,0,1,0,3.865,4.26,4.26,0,0,1,.943,1.132,2.957,2.957,0,0,1,3.221,0,2.957,2.957,0,0,1,5.5,1.132a4.26,4.26,0,0,1,.943,2.733A4.26,4.26,0,0,1,5.5,6.6,2.957,2.957,0,0,1,3.221,7.73Zm0-4.67a.849.849,0,0,0-.805.886.849.849,0,0,0,.805.886.849.849,0,0,0,.805-.886A.849.849,0,0,0,3.221,3.06Z" transform="translate(21.418 5.636)" fill="#34464b"/>
        <rect id="사각형_162" data-name="사각형 162" width="6.602" height="3.865" transform="translate(14.815 13.366)" fill="#34464b"/>
        <path id="빼기_9" data-name="빼기 9" d="M24.654,22.867H11.469l-.018-.008a9.243,9.243,0,0,1-2.726-.531A9.745,9.745,0,0,1,6.3,21.047a11.136,11.136,0,0,1-3.546-4.356A6.015,6.015,0,0,1,0,11.514a6.429,6.429,0,0,1,.732-3A5.612,5.612,0,0,1,2.652,6.4a11.159,11.159,0,0,1,3.63-4.568A9.733,9.733,0,0,1,8.8.511,9.238,9.238,0,0,1,11.646,0l.005,0H24.5a9.446,9.446,0,0,1,5.637,1.969,10.8,10.8,0,0,1,2.146,2.185A11.742,11.742,0,0,1,33.8,6.939a5.873,5.873,0,0,1,1.419,2,6.544,6.544,0,0,1-.028,5.217A5.837,5.837,0,0,1,33.7,16.176a11.227,11.227,0,0,1-3.6,4.749,9.461,9.461,0,0,1-5.438,1.938l-.007,0ZM10.306,4.026A4.663,4.663,0,0,0,6.549,6.219a9.2,9.2,0,0,0-1.557,5.295,9.2,9.2,0,0,0,1.557,5.295A4.663,4.663,0,0,0,10.306,19H26.013l.006-.008a4.807,4.807,0,0,0,3.587-2.3,9.283,9.283,0,0,0,1.474-5.176,9.212,9.212,0,0,0-1.543-5.276,4.685,4.685,0,0,0-3.73-2.212Z" transform="translate(0)" fill="#34464b"/>
      </g>
    </g>
  </g>
</svg>
