<svg xmlns="http://www.w3.org/2000/svg" width="41.309" height="33.691" viewBox="0 0 41.309 33.691">
  <g id="그룹_68" data-name="그룹 68" transform="translate(-6683.001 1076)">
    <path id="빼기_6" data-name="빼기 6" d="M13.149,26.3a13.25,13.25,0,0,1-2.65-.267,13.076,13.076,0,0,1-4.7-1.979,13.189,13.189,0,0,1-4.764-5.785A13.1,13.1,0,0,1,.267,15.8a13.281,13.281,0,0,1,0-5.3A13.072,13.072,0,0,1,2.246,5.8,13.187,13.187,0,0,1,8.031,1.033,13.076,13.076,0,0,1,10.5.267a13.276,13.276,0,0,1,5.3,0,13.079,13.079,0,0,1,4.7,1.978c.246.166.489.343.724.526L19.49,7.358a8.543,8.543,0,1,0,1.708,8.6H10.925V11.972H26.1l-3.125-.858,2.4-6.309L26.883.885h0c.068-.013.435-.083.953-.153A15.733,15.733,0,0,1,29.76.579h.091a12.991,12.991,0,0,1,1.756.13c.459.064.753.129.756.13l8.947,23.141h0c-.033.024-.213.153-.5.328a11.305,11.305,0,0,1-1.3.68,22.925,22.925,0,0,1-2.445.865L29.7,6.695l-4.05,10.55c-.113.345-.242.689-.383,1.023A13.133,13.133,0,0,1,13.149,26.3Z" transform="translate(6683.001 -1076)" fill="#5b8def"/>
    <g id="그룹_52" data-name="그룹 52" transform="translate(6704.524 -1051.598)">
      <g id="그룹_51" data-name="그룹 51" transform="translate(0 0)">
        <path id="빼기_7" data-name="빼기 7" d="M1.308,3.14a1.2,1.2,0,0,1-.925-.46A1.731,1.731,0,0,1,0,1.57,1.731,1.731,0,0,1,.383.46,1.2,1.2,0,0,1,1.308,0a1.2,1.2,0,0,1,.925.46,1.731,1.731,0,0,1,.383,1.11,1.731,1.731,0,0,1-.383,1.11A1.2,1.2,0,0,1,1.308,3.14Zm0-1.9a.345.345,0,0,0-.327.36.345.345,0,0,0,.327.36.345.345,0,0,0,.327-.36A.345.345,0,0,0,1.308,1.243Z" transform="translate(3.402 2.29)" fill="#5b8def"/>
        <path id="빼기_8" data-name="빼기 8" d="M1.308,3.14a1.2,1.2,0,0,1-.925-.46A1.731,1.731,0,0,1,0,1.57,1.731,1.731,0,0,1,.383.46,1.2,1.2,0,0,1,1.308,0a1.2,1.2,0,0,1,.925.46,1.731,1.731,0,0,1,.383,1.11,1.731,1.731,0,0,1-.383,1.11A1.2,1.2,0,0,1,1.308,3.14Zm0-1.9a.345.345,0,0,0-.327.36.345.345,0,0,0,.327.36.345.345,0,0,0,.327-.36A.345.345,0,0,0,1.308,1.243Z" transform="translate(8.701 2.29)" fill="#5b8def"/>
        <rect id="사각형_162" data-name="사각형 162" width="2.682" height="1.57" transform="translate(6.019 5.43)" fill="#5b8def"/>
        <path id="빼기_9" data-name="빼기 9" d="M10.016,9.29H4.659l-.007,0a3.755,3.755,0,0,1-1.107-.216,3.959,3.959,0,0,1-.986-.52,4.524,4.524,0,0,1-1.44-1.77A2.444,2.444,0,0,1,0,4.678,2.612,2.612,0,0,1,.3,3.459a2.28,2.28,0,0,1,.78-.859A4.533,4.533,0,0,1,2.552.744,3.954,3.954,0,0,1,3.577.208,3.753,3.753,0,0,1,4.731,0H9.953a3.838,3.838,0,0,1,2.29.8,4.386,4.386,0,0,1,.872.887,4.77,4.77,0,0,1,.617,1.131,2.386,2.386,0,0,1,.577.812A2.658,2.658,0,0,1,14.3,5.75a2.371,2.371,0,0,1-.605.821A4.561,4.561,0,0,1,12.228,8.5a3.844,3.844,0,0,1-2.209.787l0,0ZM4.187,1.636a1.894,1.894,0,0,0-1.527.891,3.737,3.737,0,0,0-.632,2.151A3.737,3.737,0,0,0,2.66,6.829a1.894,1.894,0,0,0,1.527.891h6.381l0,0a1.953,1.953,0,0,0,1.457-.936,3.771,3.771,0,0,0,.6-2.1A3.743,3.743,0,0,0,12,2.534a1.9,1.9,0,0,0-1.515-.9Z" fill="#5b8def"/>
      </g>
    </g>
  </g>
</svg>
