<svg xmlns="http://www.w3.org/2000/svg" width="7.742" height="17.548" viewBox="0 0 7.742 17.548">
  <g id="right-chevron" transform="translate(7.742 17.548) rotate(180)">
    <g id="그룹_24" data-name="그룹 24" transform="translate(0 0)">
      <path id="패스_36" data-name="패스 36" d="M56.341,17.23a.472.472,0,0,0,.4.318.41.41,0,0,0,.3-.159L63.783,9.4a1.109,1.109,0,0,0,0-1.271L57.042.157c-.225-.265-.534-.185-.7.159a1.137,1.137,0,0,0,.1,1.113L62.649,8.78,56.441,16.13A1.112,1.112,0,0,0,56.341,17.23Z" transform="translate(-56.242 0)" fill="#34464b"/>
    </g>
  </g>
</svg>
